<svg xmlns="http://www.w3.org/2000/svg" width="169.814" height="142.917" viewBox="0 0 169.814 142.917">
  <g id="Group_1128" data-name="Group 1128" transform="translate(-1079.667 -406.208)">
    <path id="Path_3519" data-name="Path 3519" d="M1263.545,409.646s5.151,5.619,13.579,1.873,7.609-5.034,12.876-4.8,10.3,4.917,9.014,11.238c-1.814-1.814-7.609-2.692-9.833-.234s-4.565,10.652-12.642,11.121-15.92-2.107-19.081-6.555c3.043,0,6.087-.234,6.087-.234s-5.033-4.565-4.8-9.365a29.316,29.316,0,0,0,4.682,3.863Z" transform="translate(-94.543)" fill="#ec9984" stroke="#002e4e" stroke-miterlimit="10" stroke-width="1"/>
    <rect id="Rectangle_489" data-name="Rectangle 489" width="14.476" height="22.384" rx="7.238" transform="translate(1190.385 413.555)" fill="none" stroke="#002e4e" stroke-miterlimit="10" stroke-width="1"/>
    <path id="Path_3520" data-name="Path 3520" d="M1299,490.873a8.479,8.479,0,0,0,.656,3.278h-1.4l-8.428-8.428h-3.479c1.63-10.25,5.385-22.752,14.01-28.68a.32.32,0,0,0,.052-.033l2.5,26.7A8.5,8.5,0,0,0,1299,490.873Z" transform="translate(-109.906 -26.757)" fill="#80e0dd" stroke="#002e4e" stroke-miterlimit="10" stroke-width="1"/>
    <line id="Line_35" data-name="Line 35" x1="0.028" y1="0.295" transform="translate(1193.009 456.957)" fill="none" stroke="#002e4e" stroke-miterlimit="10" stroke-width="1"/>
    <path id="Path_3521" data-name="Path 3521" d="M1293.37,457.08c-1.021.637-17.343,11.083-20.134,28.68-.009.052-.019.108-.028.159" transform="translate(-102.918 -26.794)" fill="none" stroke="#002e4e" stroke-miterlimit="10" stroke-width="1.5"/>
    <circle id="Ellipse_36" data-name="Ellipse 36" cx="4.995" cy="4.995" r="4.995" transform="translate(1192.629 459.123)" fill="none" stroke="#002e4e" stroke-miterlimit="10" stroke-width="1"/>
    <circle id="Ellipse_37" data-name="Ellipse 37" cx="4.995" cy="4.995" r="4.995" transform="translate(1192.629 459.123)" fill="#dde0e6" stroke="#002e4e" stroke-miterlimit="10" stroke-width="1"/>
    <path id="Path_3522" data-name="Path 3522" d="M1330.427,519.652a8.518,8.518,0,1,1-8.522-8.522A8.479,8.479,0,0,1,1330.427,519.652Z" transform="translate(-124.279 -55.536)" fill="none" stroke="#002e4e" stroke-miterlimit="10" stroke-width="1"/>
    <path id="Path_3523" data-name="Path 3523" d="M1284.218,528.083h-5.3l-6.007-6.007h-13.584a1.873,1.873,0,0,1-1.873-1.873h0a1.873,1.873,0,0,1,1.873-1.873h15.133Z" transform="translate(-94.543 -59.364)" fill="#002e4e" stroke="#002e4e" stroke-miterlimit="10" stroke-width="1"/>
    <path id="Path_3524" data-name="Path 3524" d="M1291.559,531.022a2.642,2.642,0,0,0-2.51,2.646v4.762H1283.7a95.6,95.6,0,0,1,.717-12.1h2.449Z" transform="translate(-108.496 -63.619)" fill="#80e0dd" stroke="#002e4e" stroke-miterlimit="10" stroke-width="1"/>
    <path id="Path_3525" data-name="Path 3525" d="M1285.758,518.33c-.206,1.292-.379,2.547-.52,3.746" transform="translate(-109.315 -59.364)" fill="none" stroke="#002e4e" stroke-miterlimit="10" stroke-width="1"/>
    <path id="Path_3526" data-name="Path 3526" d="M1345.225,490.873a8.479,8.479,0,0,1-.656,3.278h1.4l8.428-8.428h3.479c-1.629-10.25-5.385-22.752-14.01-28.68a.314.314,0,0,1-.052-.033l-2.505,26.7A8.5,8.5,0,0,1,1345.225,490.873Z" transform="translate(-139.135 -26.757)" fill="#80e0dd" stroke="#002e4e" stroke-miterlimit="10" stroke-width="1"/>
    <path id="Path_3527" data-name="Path 3527" d="M1366.937,485.919c-.009-.052-.019-.108-.028-.159-2.791-17.6-19.114-28.043-20.134-28.68" transform="translate(-142.039 -26.794)" fill="none" stroke="#002e4e" stroke-miterlimit="10" stroke-width="1.5"/>
    <path id="Path_3528" data-name="Path 3528" d="M1348.435,528.083h5.3l6.008-6.007h13.583a1.873,1.873,0,0,0,1.873-1.873h0a1.873,1.873,0,0,0-1.873-1.873h-15.133Z" transform="translate(-142.921 -59.364)" fill="#002e4e" stroke="#002e4e" stroke-miterlimit="10" stroke-width="1"/>
    <path id="Path_3529" data-name="Path 3529" d="M1362.555,531.022a2.642,2.642,0,0,1,2.51,2.646v4.762h5.347a95.62,95.62,0,0,0-.716-12.1h-2.449Z" transform="translate(-150.43 -63.619)" fill="#80e0dd" stroke="#002e4e" stroke-miterlimit="10" stroke-width="1"/>
    <path id="Path_3530" data-name="Path 3530" d="M1377.215,522.076c-.141-1.2-.314-2.454-.52-3.746" transform="translate(-157.949 -59.364)" fill="none" stroke="#002e4e" stroke-miterlimit="10" stroke-width="1"/>
    <path id="Path_3531" data-name="Path 3531" d="M1288.738,568s-9.521,4.214-10.613,17.169c0,0,.039,9.755,6.711,15.725,0-11-1.171-16.935,3.9-22.007Z" transform="translate(-105.533 -85.777)" fill="#dde0e6" stroke="#002e4e" stroke-miterlimit="10" stroke-width="1"/>
    <path id="Path_3532" data-name="Path 3532" d="M1363.958,568s9.521,4.214,10.613,17.169c0,0-.039,9.755-6.712,15.725,0-11,1.171-16.935-3.9-22.007Z" transform="translate(-151.176 -85.777)" fill="#dde0e6" stroke="#002e4e" stroke-miterlimit="10" stroke-width="1"/>
    <rect id="Rectangle_490" data-name="Rectangle 490" width="4.058" height="36.757" transform="translate(1183.205 482.223)" fill="none" stroke="#002e4e" stroke-miterlimit="10" stroke-width="1"/>
    <rect id="Rectangle_491" data-name="Rectangle 491" width="4.058" height="36.757" transform="translate(1208.724 482.223)" fill="none" stroke="#002e4e" stroke-miterlimit="10" stroke-width="1"/>
    <rect id="Rectangle_492" data-name="Rectangle 492" width="19.744" height="4.37" transform="translate(1163.461 514.609)" fill="#dde0e6" stroke="#002e4e" stroke-miterlimit="10" stroke-width="1"/>
    <rect id="Rectangle_493" data-name="Rectangle 493" width="12.759" height="4.37" transform="translate(1212.782 514.609)" fill="#dde0e6" stroke="#002e4e" stroke-miterlimit="10" stroke-width="1"/>
    <path id="Path_3533" data-name="Path 3533" d="M1330.917,568v14.2h-3.395v-5.151a7.335,7.335,0,0,0-14.67,0V582.2h-3.395V568Z" transform="translate(-122.195 -85.777)" fill="#dde0e6" stroke="#002e4e" stroke-miterlimit="10" stroke-width="1"/>
    <path id="Path_3534" data-name="Path 3534" d="M1331.378,579v5.151h-14.67V579a7.335,7.335,0,0,1,14.67,0Z" transform="translate(-126.05 -87.729)" fill="none" stroke="#002e4e" stroke-miterlimit="10" stroke-width="1"/>
    <path id="Path_3535" data-name="Path 3535" d="M1331.378,598.33v35.352a7.335,7.335,0,1,1-14.67,0V598.33Z" transform="translate(-126.05 -101.905)" fill="#dde0e6" stroke="#002e4e" stroke-miterlimit="10" stroke-width="1"/>
    <line id="Line_36" data-name="Line 36" y2="42.226" transform="translate(1194.911 496.424)" fill="none" stroke="#002e4e" stroke-miterlimit="10" stroke-width="1"/>
    <line id="Line_37" data-name="Line 37" y2="42.226" transform="translate(1199.75 496.424)" fill="none" stroke="#002e4e" stroke-miterlimit="10" stroke-width="1"/>
    <path id="Path_3536" data-name="Path 3536" d="M1329.15,538.985V548.5a2.652,2.652,0,0,1-2.65,2.655h-28.722a2.652,2.652,0,0,1-2.65-2.655v-9.519a2.642,2.642,0,0,1,2.51-2.646.705.705,0,0,1,.14-.009H1326.5A2.652,2.652,0,0,1,1329.15,538.985Z" transform="translate(-114.575 -68.936)" fill="#fff" stroke="#002e4e" stroke-miterlimit="10" stroke-width="1"/>
    <line id="Line_38" data-name="Line 38" x2="169.814" transform="translate(1079.667 538.65)" fill="none" stroke="#002e4e" stroke-miterlimit="10" stroke-width="2"/>
    <line id="Line_39" data-name="Line 39" x2="117.644" transform="translate(1105.751 548.212)" fill="none" stroke="#002e4e" stroke-miterlimit="10" stroke-width="1.825" stroke-dasharray="6.467 7.545"/>
    <path id="Path_3537" data-name="Path 3537" d="M1208.3,549.289v42.844H1164V549.289l8.269-2.767a43.758,43.758,0,0,1,27.771,0l.492.164Z" transform="translate(-44.845 -73.153)" fill="none" stroke="#002e4e" stroke-miterlimit="10" stroke-width="1"/>
    <path id="Path_3538" data-name="Path 3538" d="M1164,555s22.319,18.261,0,42.844" transform="translate(-44.845 -78.864)" fill="none" stroke="#002e4e" stroke-miterlimit="10" stroke-width="1"/>
    <path id="Path_3539" data-name="Path 3539" d="M1246.4,555s-24.212,21.071,0,42.844" transform="translate(-82.943 -78.864)" fill="none" stroke="#002e4e" stroke-miterlimit="10" stroke-width="1"/>
    <path id="Path_3540" data-name="Path 3540" d="M1139.894,566.333h-7.33a9.164,9.164,0,0,0-8.851,6.789l-5.046,18.808h21.227" transform="translate(-20.739 -84.891)" fill="none" stroke="#002e4e" stroke-miterlimit="10" stroke-width="1"/>
    <path id="Rectangle_494" data-name="Rectangle 494" d="M0,0H13.813a0,0,0,0,1,0,0V24.7a6.906,6.906,0,0,1-6.906,6.906h0A6.906,6.906,0,0,1,0,24.7V0A0,0,0,0,1,0,0Z" transform="translate(1103.118 507.039)" fill="#dde0e6" stroke="#002e4e" stroke-miterlimit="10" stroke-width="1"/>
    <line id="Line_40" data-name="Line 40" y2="31.227" transform="translate(1107.605 507.039)" fill="none" stroke="#002e4e" stroke-miterlimit="10" stroke-width="1"/>
    <line id="Line_41" data-name="Line 41" y2="31.227" transform="translate(1112.287 507.039)" fill="none" stroke="#002e4e" stroke-miterlimit="10" stroke-width="1"/>
    <line id="Line_42" data-name="Line 42" x1="0.005" y2="0.005" transform="translate(1130.153 452.49)" fill="none" stroke="#002e4e" stroke-miterlimit="10" stroke-width="1"/>
    <path id="Path_3541" data-name="Path 3541" d="M1196.6,483.75s-.1.056-.286.159" transform="translate(-62.027 -40.976)" fill="none" stroke="#002e4e" stroke-miterlimit="10" stroke-width="1"/>
    <path id="Path_3542" data-name="Path 3542" d="M1202.573,493.087c.093.3,3.741,11.776,2.346,21.506l-.492-.164a43.757,43.757,0,0,0-27.771,0c-1.662-9.894,2.617-20.593,2.73-20.874l-3.624,4.327-1.227-1.227-2.285-2.285c3.015-5.408,9.8-9.524,11.266-10.376a5.423,5.423,0,0,0,2.271,3.292l2.238,1.5a5.455,5.455,0,0,0,6.064,0l2.243-1.5a5.446,5.446,0,0,0,2.29-3.376c.782.389,9.187,4.7,10.971,11.28l-3.98,1.466A6.218,6.218,0,0,0,1202.573,493.087Z" transform="translate(-49.232 -41.061)" fill="#b1ea8c" stroke="#002e4e" stroke-miterlimit="10" stroke-width="1"/>
    <line id="Line_43" data-name="Line 43" x1="0.005" y1="0.005" transform="translate(1153.336 452.022)" fill="none" stroke="#002e4e" stroke-miterlimit="10" stroke-width="1"/>
    <path id="Path_3543" data-name="Path 3543" d="M1228.5,483.878l-.061-.028" transform="translate(-79.112 -41.029)" fill="none" stroke="#002e4e" stroke-miterlimit="10" stroke-width="1"/>
    <path id="Path_3544" data-name="Path 3544" d="M1153,507.073l-4.451,3.784a6.126,6.126,0,0,1-7.88.046l-8.917-7.4" transform="translate(-27.696 -51.478)" fill="none" stroke="#002e4e" stroke-miterlimit="10" stroke-width="1"/>
    <path id="Path_3545" data-name="Path 3545" d="M1248.733,509.2s2.583,10.5,1.53,18.841" transform="translate(-89.903 -54.511)" fill="none" stroke="#002e4e" stroke-miterlimit="10" stroke-width="1"/>
    <path id="Path_3546" data-name="Path 3546" d="M1194.669,450.107s7.76.585,9.6-3.629a19.336,19.336,0,0,0,5.775,4.168h3.906a3.2,3.2,0,0,0,3.2-3.2h0c0-9.562-10.09-16.073-18.6-11.721C1194.373,437.86,1191.9,442.074,1194.669,450.107Z" transform="translate(-60.531 -14.708)" fill="#ffe35a" stroke="#002e4e" stroke-miterlimit="10" stroke-width="1"/>
    <path id="Path_3547" data-name="Path 3547" d="M1211.372,456.854v7.436a5.517,5.517,0,0,1-.122,1.147,5.445,5.445,0,0,1-2.29,3.376l-2.243,1.5a5.455,5.455,0,0,1-6.064,0l-2.238-1.5a5.423,5.423,0,0,1-2.271-3.292,5.121,5.121,0,0,1-.145-1.231v-7.436a7.686,7.686,0,0,1,15.372,0Z" transform="translate(-61.862 -22.588)" fill="none" stroke="#002e4e" stroke-miterlimit="10" stroke-width="1"/>
  </g>
</svg>
