<svg xmlns="http://www.w3.org/2000/svg" xmlns:xlink="http://www.w3.org/1999/xlink" width="135.323" height="39.629" viewBox="0 0 135.323 39.629">
  <defs>
    <linearGradient id="linear-gradient" x1="1.625" y1="-4.143" x2="0.33" y2="-3.468" gradientUnits="objectBoundingBox">
      <stop offset="0" stop-color="#00a0ff"/>
      <stop offset="0.007" stop-color="#00a1ff"/>
      <stop offset="0.26" stop-color="#00beff"/>
      <stop offset="0.512" stop-color="#00d2ff"/>
      <stop offset="0.76" stop-color="#00dfff"/>
      <stop offset="1" stop-color="#00e3ff"/>
    </linearGradient>
    <linearGradient id="linear-gradient-2" x1="1.977" y1="-11.775" x2="-0.399" y2="-11.775" gradientUnits="objectBoundingBox">
      <stop offset="0" stop-color="#ffe000"/>
      <stop offset="0.409" stop-color="#ffbd00"/>
      <stop offset="0.775" stop-color="orange"/>
      <stop offset="1" stop-color="#ff9c00"/>
    </linearGradient>
    <linearGradient id="linear-gradient-3" x1="0.913" y1="-8.638" x2="-0.447" y2="-6.852" gradientUnits="objectBoundingBox">
      <stop offset="0" stop-color="#ff3a44"/>
      <stop offset="1" stop-color="#c31162"/>
    </linearGradient>
    <linearGradient id="linear-gradient-4" x1="-0.134" y1="-8.068" x2="0.473" y2="-7.27" gradientUnits="objectBoundingBox">
      <stop offset="0" stop-color="#32a071"/>
      <stop offset="0.068" stop-color="#2da771"/>
      <stop offset="0.476" stop-color="#15cf74"/>
      <stop offset="0.801" stop-color="#06e775"/>
      <stop offset="1" stop-color="#00f076"/>
    </linearGradient>
  </defs>
  <g id="Group_1108" data-name="Group 1108" transform="translate(115.155 23.928)">
    <path id="path14" d="M15.156,15.7h-125.3a5,5,0,0,1-5.012-4.954V-18.975a5,5,0,0,1,5.012-4.953h125.3a5,5,0,0,1,5.012,4.953V10.747A5,5,0,0,1,15.156,15.7Z"/>
    <path id="path16" d="M15.156-23.134a4.189,4.189,0,0,1,4.209,4.159V10.747a4.189,4.189,0,0,1-4.209,4.16h-125.3a4.189,4.189,0,0,1-4.208-4.16V-18.975a4.189,4.189,0,0,1,4.208-4.159h125.3m0-.794h-125.3a5,5,0,0,0-5.012,4.953V10.747a5,5,0,0,0,5.012,4.954h125.3a5,5,0,0,0,5.012-4.954V-18.975A5,5,0,0,0,15.156-23.928Z" fill="#a6a6a6"/>
    <g id="g18">
      <path id="path20" d="M-67.624-13.779a2.687,2.687,0,0,1-.744,1.984,2.95,2.95,0,0,1-2.213.88,3.061,3.061,0,0,1-2.211-.89,2.985,2.985,0,0,1-.911-2.216,2.964,2.964,0,0,1,.911-2.21,3.042,3.042,0,0,1,2.211-.9,3.178,3.178,0,0,1,1.235.252,2.435,2.435,0,0,1,.939.662l-.523.523a2.053,2.053,0,0,0-1.651-.7,2.314,2.314,0,0,0-1.644.657,2.271,2.271,0,0,0-.69,1.713,2.282,2.282,0,0,0,.69,1.718,2.336,2.336,0,0,0,1.644.657,2.3,2.3,0,0,0,1.679-.662,1.851,1.851,0,0,0,.5-1.2h-2.183v-.716h2.912A2.021,2.021,0,0,1-67.624-13.779Z" fill="#fff" stroke="#fff" stroke-miterlimit="10" stroke-width="0.16"/>
    </g>
    <g id="g22">
      <path id="path24" d="M-63-16.261h-2.735v1.882h2.466v.716h-2.466v1.882H-63v.73h-3.509v-5.94H-63Z" fill="#fff" stroke="#fff" stroke-miterlimit="10" stroke-width="0.16"/>
    </g>
    <g id="g26">
      <path id="path28" d="M-59.744-11.051h-.774v-5.21H-62.2v-.73h4.131v.73h-1.679Z" fill="#fff" stroke="#fff" stroke-miterlimit="10" stroke-width="0.16"/>
    </g>
    <g id="g30">
      <path id="path32" d="M-55.075-11.051v-5.94h.773v5.94Z" fill="#fff" stroke="#fff" stroke-miterlimit="10" stroke-width="0.16"/>
    </g>
    <g id="g34">
      <path id="path36" d="M-50.875-11.051h-.768v-5.21h-1.684v-.73h4.136v.73h-1.684Z" fill="#fff" stroke="#fff" stroke-miterlimit="10" stroke-width="0.16"/>
    </g>
    <g id="g38">
      <path id="path40" d="M-41.37-11.815a2.971,2.971,0,0,1-2.2.9,2.975,2.975,0,0,1-2.208-.9,3.018,3.018,0,0,1-.886-2.206,3.016,3.016,0,0,1,.886-2.2,2.972,2.972,0,0,1,2.208-.9,2.953,2.953,0,0,1,2.2.905,3.008,3.008,0,0,1,.891,2.2A3.018,3.018,0,0,1-41.37-11.815Zm-3.838-.5a2.228,2.228,0,0,0,1.636.667,2.216,2.216,0,0,0,1.63-.667,2.317,2.317,0,0,0,.67-1.708,2.317,2.317,0,0,0-.67-1.708,2.216,2.216,0,0,0-1.63-.667,2.228,2.228,0,0,0-1.636.667,2.321,2.321,0,0,0-.67,1.708A2.321,2.321,0,0,0-45.208-12.313Z" fill="#fff" stroke="#fff" stroke-miterlimit="10" stroke-width="0.16"/>
    </g>
    <g id="g42">
      <path id="path44" d="M-39.4-11.051v-5.94h.939l2.922,4.62h.034l-.034-1.142v-3.478h.773v5.94h-.807L-38.629-15.9h-.034l.034,1.146v3.7Z" fill="#fff" stroke="#fff" stroke-miterlimit="10" stroke-width="0.16"/>
    </g>
    <path id="path46" d="M-46.857-2.377a4.178,4.178,0,0,0-4.277,4.214A4.189,4.189,0,0,0-46.857,6.05a4.191,4.191,0,0,0,4.283-4.213A4.18,4.18,0,0,0-46.857-2.377Zm0,6.768a2.449,2.449,0,0,1-2.4-2.554,2.438,2.438,0,0,1,2.4-2.555,2.442,2.442,0,0,1,2.409,2.555A2.453,2.453,0,0,1-46.857,4.391ZM-56.19-2.377a4.176,4.176,0,0,0-4.278,4.214A4.187,4.187,0,0,0-56.19,6.05a4.188,4.188,0,0,0,4.278-4.213A4.177,4.177,0,0,0-56.19-2.377Zm0,6.768A2.452,2.452,0,0,1-58.6,1.837,2.44,2.44,0,0,1-56.19-.718a2.437,2.437,0,0,1,2.4,2.555A2.448,2.448,0,0,1-56.19,4.391ZM-67.3-1.086V.7h4.327a3.7,3.7,0,0,1-.984,2.249A4.472,4.472,0,0,1-67.3,4.261,4.723,4.723,0,0,1-72.044-.5,4.722,4.722,0,0,1-67.3-5.25a4.621,4.621,0,0,1,3.261,1.276l1.277-1.262A6.355,6.355,0,0,0-67.3-7.04,6.676,6.676,0,0,0-74.016-.5,6.676,6.676,0,0,0-67.3,6.05a6.087,6.087,0,0,0,4.621-1.838A5.86,5.86,0,0,0-61.109.033a5.9,5.9,0,0,0-.1-1.119ZM-21.881.3a3.949,3.949,0,0,0-3.651-2.68A4.025,4.025,0,0,0-29.55,1.837,4.147,4.147,0,0,0-25.321,6.05a4.239,4.239,0,0,0,3.553-1.867l-1.453-.958a2.445,2.445,0,0,1-2.1,1.166,2.17,2.17,0,0,1-2.065-1.277l5.7-2.332Zm-5.814,1.4A2.325,2.325,0,0,1-25.468-.751a1.659,1.659,0,0,1,1.586.894Zm-4.634,4.088h1.874V-6.59h-1.874ZM-35.4-1.439h-.063A2.972,2.972,0,0,0-37.7-2.377a4.213,4.213,0,0,0-4.088,4.228A4.2,4.2,0,0,0-37.7,6.05a2.924,2.924,0,0,0,2.241-.957h.063v.6a2.171,2.171,0,0,1-2.276,2.477,2.363,2.363,0,0,1-2.148-1.5l-1.631.673a4.067,4.067,0,0,0,3.779,2.491c2.2,0,4.053-1.278,4.053-4.387V-2.121H-35.4Zm-2.144,5.83a2.43,2.43,0,0,1-2.373-2.54A2.447,2.447,0,0,1-37.543-.718a2.386,2.386,0,0,1,2.277,2.569A2.368,2.368,0,0,1-37.543,4.391ZM-13.1-6.59h-4.483V5.794h1.87V1.1H-13.1A3.952,3.952,0,0,0-8.992-2.745,3.954,3.954,0,0,0-13.1-6.59Zm.049,5.969h-2.662V-4.868h2.662a2.162,2.162,0,0,1,2.193,2.123A2.174,2.174,0,0,1-13.056-.621ZM-1.5-2.4A3.513,3.513,0,0,0-4.832-.5l1.658.687a1.777,1.777,0,0,1,1.708-.91A1.8,1.8,0,0,1,.5.865V1A4.154,4.154,0,0,0-1.451.516c-1.786,0-3.607.972-3.607,2.786A2.88,2.88,0,0,0-1.949,6.03,2.654,2.654,0,0,0,.439,4.817H.5v.957H2.308V1.023C2.308-1.172.649-2.4-1.5-2.4Zm-.225,6.787c-.612,0-1.464-.3-1.464-1.049,0-.959,1.063-1.327,1.983-1.327A3.391,3.391,0,0,1,.5,2.426,2.261,2.261,0,0,1-1.725,4.386ZM8.887-2.13,6.738,3.239H6.674L4.452-2.13H2.436l3.338,7.5L3.87,9.547H5.823L10.966-2.13ZM-7.965,5.794H-6.09V-6.59H-7.965Z" fill="#fff"/>
    <g id="g48">
      <path id="path64" d="M-104.695-16.459a1.959,1.959,0,0,0-.464,1.393V6.844a1.96,1.96,0,0,0,.464,1.393l.073.067L-92.2-3.969v-.289l-12.422-12.273Z" fill="url(#linear-gradient)"/>
    </g>
    <g id="g66">
      <path id="path78" d="M-88.064.124-92.2-3.969v-.289l4.141-4.093.093.053,4.9,2.758c1.4.782,1.4,2.07,0,2.858l-4.9,2.753Z" fill="url(#linear-gradient-2)"/>
    </g>
    <g id="g80">
      <path id="path88" d="M-87.966.071-92.2-4.114l-12.5,12.351a1.648,1.648,0,0,0,2.085.058L-87.966.071" fill="url(#linear-gradient-3)"/>
    </g>
    <g id="g90">
      <path id="path104" d="M-87.966-8.3l-14.644-8.224a1.653,1.653,0,0,0-2.085.063L-92.2-4.114Z" fill="url(#linear-gradient-4)"/>
    </g>
  </g>
</svg>
