<svg xmlns="http://www.w3.org/2000/svg" width="124.43" height="143.573" viewBox="0 0 124.43 143.573">
  <g id="Group_1119" data-name="Group 1119" transform="translate(-1193.916 -406.208)">
    <path id="Path_3500" data-name="Path 3500" d="M1263.591,409.669s5.189,5.661,13.681,1.887,7.666-5.072,12.974-4.836,10.379,4.954,9.082,11.323c-1.828-1.828-7.666-2.713-9.907-.236s-4.6,10.733-12.738,11.2-16.04-2.123-19.225-6.6c3.067,0,6.133-.236,6.133-.236s-5.072-4.6-4.836-9.435a29.538,29.538,0,0,0,4.718,3.892Z" transform="translate(-33.565)" fill="#ec9984" stroke="#002e4e" stroke-miterlimit="10" stroke-width="1"/>
    <rect id="Rectangle_484" data-name="Rectangle 484" width="14.586" height="22.553" rx="7.293" transform="translate(1251.57 413.607)" fill="none" stroke="#002e4e" stroke-miterlimit="10" stroke-width="1"/>
    <path id="Path_3501" data-name="Path 3501" d="M1299.1,491.129a8.542,8.542,0,0,0,.66,3.3h-1.415l-8.492-8.492h-3.505c1.642-10.327,5.425-22.923,14.115-28.9a.319.319,0,0,0,.052-.033l2.524,26.905A8.565,8.565,0,0,0,1299.1,491.129Z" transform="translate(-48.825 -26.579)" fill="#80e0dd" stroke="#002e4e" stroke-miterlimit="10" stroke-width="1"/>
    <line id="Line_29" data-name="Line 29" x1="0.028" y1="0.297" transform="translate(1254.214 457.336)" fill="none" stroke="#002e4e" stroke-miterlimit="10" stroke-width="1"/>
    <path id="Path_3502" data-name="Path 3502" d="M1293.522,457.08c-1.028.642-17.474,11.167-20.286,28.9-.01.052-.019.108-.028.16" transform="translate(-41.884 -26.616)" fill="none" stroke="#002e4e" stroke-miterlimit="10" stroke-width="1.5"/>
    <circle id="Ellipse_34" data-name="Ellipse 34" cx="5.032" cy="5.032" r="5.032" transform="translate(1253.831 459.519)" fill="none" stroke="#002e4e" stroke-miterlimit="10" stroke-width="1"/>
    <circle id="Ellipse_35" data-name="Ellipse 35" cx="5.032" cy="5.032" r="5.032" transform="translate(1253.831 459.519)" fill="#dde0e6" stroke="#002e4e" stroke-miterlimit="10" stroke-width="1"/>
    <path id="Path_3503" data-name="Path 3503" d="M1330.555,519.716a8.582,8.582,0,1,1-8.586-8.586A8.543,8.543,0,0,1,1330.555,519.716Z" transform="translate(-63.103 -55.167)" fill="none" stroke="#002e4e" stroke-miterlimit="10" stroke-width="1"/>
    <path id="Path_3504" data-name="Path 3504" d="M1284.42,528.157h-5.336l-6.053-6.053h-13.686a1.887,1.887,0,0,1-1.887-1.887h0a1.887,1.887,0,0,1,1.887-1.887h15.248Z" transform="translate(-33.565 -58.97)" fill="#002e4e" stroke="#002e4e" stroke-miterlimit="10" stroke-width="1"/>
    <path id="Path_3505" data-name="Path 3505" d="M1291.619,531.057a2.662,2.662,0,0,0-2.529,2.666v4.8H1283.7a96.361,96.361,0,0,1,.722-12.191h2.467Z" transform="translate(-47.425 -63.196)" fill="#80e0dd" stroke="#002e4e" stroke-miterlimit="10" stroke-width="1"/>
    <path id="Path_3506" data-name="Path 3506" d="M1285.762,518.33c-.208,1.3-.382,2.566-.524,3.774" transform="translate(-48.239 -58.97)" fill="none" stroke="#002e4e" stroke-miterlimit="10" stroke-width="1"/>
    <path id="Path_3507" data-name="Path 3507" d="M1345.254,491.129a8.54,8.54,0,0,1-.661,3.3h1.415l8.492-8.492h3.505c-1.642-10.327-5.425-22.923-14.115-28.9a.324.324,0,0,1-.052-.033l-2.524,26.905A8.565,8.565,0,0,1,1345.254,491.129Z" transform="translate(-77.86 -26.579)" fill="#80e0dd" stroke="#002e4e" stroke-miterlimit="10" stroke-width="1"/>
    <path id="Path_3508" data-name="Path 3508" d="M1367.089,486.136c-.009-.052-.019-.109-.028-.16-2.812-17.729-19.258-28.254-20.286-28.9" transform="translate(-80.745 -26.616)" fill="none" stroke="#002e4e" stroke-miterlimit="10" stroke-width="1.5"/>
    <path id="Path_3509" data-name="Path 3509" d="M1348.435,528.157h5.336l6.053-6.053h13.686a1.887,1.887,0,0,0,1.887-1.887h0a1.887,1.887,0,0,0-1.887-1.887h-15.248Z" transform="translate(-81.621 -58.97)" fill="#002e4e" stroke="#002e4e" stroke-miterlimit="10" stroke-width="1"/>
    <path id="Path_3510" data-name="Path 3510" d="M1362.555,531.057a2.662,2.662,0,0,1,2.529,2.666v4.8h5.388a96.361,96.361,0,0,0-.722-12.191h-2.467Z" transform="translate(-89.08 -63.196)" fill="#80e0dd" stroke="#002e4e" stroke-miterlimit="10" stroke-width="1"/>
    <path id="Path_3511" data-name="Path 3511" d="M1377.219,522.1c-.142-1.208-.316-2.472-.524-3.774" transform="translate(-96.549 -58.97)" fill="none" stroke="#002e4e" stroke-miterlimit="10" stroke-width="1"/>
    <path id="Path_3512" data-name="Path 3512" d="M1288.818,568s-9.593,4.246-10.693,17.3c0,0,.039,9.828,6.762,15.844,0-11.087-1.179-17.063,3.931-22.173Z" transform="translate(-44.482 -85.207)" fill="#dde0e6" stroke="#002e4e" stroke-miterlimit="10" stroke-width="1"/>
    <path id="Path_3513" data-name="Path 3513" d="M1363.958,568s9.593,4.246,10.694,17.3c0,0-.04,9.828-6.762,15.844,0-11.087,1.179-17.063-3.931-22.173Z" transform="translate(-89.821 -85.207)" fill="#dde0e6" stroke="#002e4e" stroke-miterlimit="10" stroke-width="1"/>
    <rect id="Rectangle_485" data-name="Rectangle 485" width="4.089" height="37.034" transform="translate(1244.337 482.793)" fill="none" stroke="#002e4e" stroke-miterlimit="10" stroke-width="1"/>
    <rect id="Rectangle_486" data-name="Rectangle 486" width="4.089" height="37.034" transform="translate(1270.048 482.793)" fill="none" stroke="#002e4e" stroke-miterlimit="10" stroke-width="1"/>
    <rect id="Rectangle_487" data-name="Rectangle 487" width="19.893" height="4.403" transform="translate(1224.444 515.424)" fill="#dde0e6" stroke="#002e4e" stroke-miterlimit="10" stroke-width="1"/>
    <rect id="Rectangle_488" data-name="Rectangle 488" width="12.856" height="4.403" transform="translate(1274.137 515.424)" fill="#dde0e6" stroke="#002e4e" stroke-miterlimit="10" stroke-width="1"/>
    <path id="Path_3514" data-name="Path 3514" d="M1331.079,568v14.309h-3.42v-5.189a7.39,7.39,0,0,0-14.781,0v5.189h-3.42V568Z" transform="translate(-61.033 -85.207)" fill="#dde0e6" stroke="#002e4e" stroke-miterlimit="10" stroke-width="1"/>
    <path id="Path_3515" data-name="Path 3515" d="M1331.489,579.058v5.189h-14.781v-5.189a7.39,7.39,0,0,1,14.781,0Z" transform="translate(-64.862 -87.145)" fill="none" stroke="#002e4e" stroke-miterlimit="10" stroke-width="1"/>
    <path id="Path_3516" data-name="Path 3516" d="M1331.489,598.33v35.619a7.39,7.39,0,1,1-14.781,0V598.33Z" transform="translate(-64.862 -101.228)" fill="#dde0e6" stroke="#002e4e" stroke-miterlimit="10" stroke-width="1"/>
    <line id="Line_30" data-name="Line 30" y2="42.545" transform="translate(1256.131 497.102)" fill="none" stroke="#002e4e" stroke-miterlimit="10" stroke-width="1"/>
    <line id="Line_31" data-name="Line 31" y2="42.545" transform="translate(1261.006 497.102)" fill="none" stroke="#002e4e" stroke-miterlimit="10" stroke-width="1"/>
    <path id="Path_3517" data-name="Path 3517" d="M1329.407,539V548.6a2.672,2.672,0,0,1-2.67,2.675H1297.8a2.672,2.672,0,0,1-2.67-2.675V539a2.662,2.662,0,0,1,2.529-2.665.711.711,0,0,1,.141-.009h28.938A2.672,2.672,0,0,1,1329.407,539Z" transform="translate(-53.463 -68.478)" fill="#fff" stroke="#002e4e" stroke-miterlimit="10" stroke-width="1"/>
    <line id="Line_32" data-name="Line 32" x2="124.43" transform="translate(1193.916 539.647)" fill="none" stroke="#002e4e" stroke-miterlimit="10" stroke-width="1.5"/>
    <line id="Line_33" data-name="Line 33" x2="89.204" transform="translate(1211.529 549.281)" fill="none" stroke="#002e4e" stroke-miterlimit="10" stroke-width="1" stroke-dasharray="6 7"/>
  </g>
</svg>
