<svg xmlns="http://www.w3.org/2000/svg" width="135" height="40" viewBox="0 0 135 40">
  <g id="Group_1114" data-name="Group 1114" transform="translate(151.879 12.455)">
    <path id="Path_3475" data-name="Path 3475" d="M-21.682,27.545H-147.15a4.74,4.74,0,0,1-4.729-4.733V-7.729a4.733,4.733,0,0,1,4.729-4.726H-21.682a4.8,4.8,0,0,1,4.8,4.726V22.812a4.8,4.8,0,0,1-4.8,4.733Z" fill="#a6a6a6"/>
    <path id="Path_3476" data-name="Path 3476" d="M-17.847,22.813a3.83,3.83,0,0,1-3.834,3.83H-147.15a3.835,3.835,0,0,1-3.839-3.83V-7.73a3.84,3.84,0,0,1,3.839-3.835H-21.682A3.834,3.834,0,0,1-17.848-7.73V22.813Z"/>
    <g id="Group_1110" data-name="Group 1110">
      <g id="Group_1109" data-name="Group 1109">
        <path id="Path_3477" data-name="Path 3477" d="M-121.751,7.329a5.8,5.8,0,0,1,2.761-4.864,5.937,5.937,0,0,0-4.676-2.528c-1.967-.207-3.875,1.177-4.877,1.177-1.022,0-2.565-1.157-4.228-1.123a6.225,6.225,0,0,0-5.24,3.2c-2.266,3.923-.576,9.688,1.6,12.859,1.086,1.553,2.355,3.287,4.016,3.226,1.625-.067,2.232-1.036,4.193-1.036,1.943,0,2.513,1.036,4.207,1,1.744-.028,2.842-1.56,3.89-3.127a12.832,12.832,0,0,0,1.779-3.623A5.6,5.6,0,0,1-121.751,7.329Z" fill="#fff"/>
        <path id="Path_3478" data-name="Path 3478" d="M-124.951-2.149a5.706,5.706,0,0,0,1.306-4.089A5.812,5.812,0,0,0-127.4-4.294a5.43,5.43,0,0,0-1.34,3.938A4.8,4.8,0,0,0-124.951-2.149Z" fill="#fff"/>
      </g>
    </g>
    <g id="Group_1111" data-name="Group 1111">
      <path id="Path_3479" data-name="Path 3479" d="M-98.234,19.049H-100.5l-1.244-3.909h-4.324l-1.185,3.909h-2.211l4.284-13.308h2.646Zm-3.89-5.549-1.125-3.475q-.178-.532-.671-2.507h-.04q-.2.849-.632,2.507l-1.1,3.475Z" fill="#fff"/>
      <path id="Path_3480" data-name="Path 3480" d="M-87.217,14.133A5.453,5.453,0,0,1-88.54,18a3.868,3.868,0,0,1-2.942,1.264A2.942,2.942,0,0,1-94.207,17.9h-.04v5.055h-2.132V12.612q0-1.539-.079-3.159h1.875l.119,1.521h.04a3.552,3.552,0,0,1,3.238-1.718A3.559,3.559,0,0,1-88.353,10.6,5.287,5.287,0,0,1-87.217,14.133Zm-2.172.078a3.951,3.951,0,0,0-.632-2.31,2.183,2.183,0,0,0-1.856-.948,2.217,2.217,0,0,0-1.431.523,2.426,2.426,0,0,0-.839,1.373,2.792,2.792,0,0,0-.1.65v1.6a2.564,2.564,0,0,0,.642,1.768,2.128,2.128,0,0,0,1.668.721,2.183,2.183,0,0,0,1.875-.928A4.084,4.084,0,0,0-89.389,14.211Z" fill="#fff"/>
      <path id="Path_3481" data-name="Path 3481" d="M-76.18,14.133A5.449,5.449,0,0,1-77.5,18a3.865,3.865,0,0,1-2.941,1.264A2.939,2.939,0,0,1-83.169,17.9h-.04v5.055h-2.132V12.612q0-1.539-.079-3.159h1.875l.119,1.521h.04a3.55,3.55,0,0,1,3.238-1.718A3.565,3.565,0,0,1-77.314,10.6,5.3,5.3,0,0,1-76.18,14.133Zm-2.172.078a3.951,3.951,0,0,0-.633-2.31,2.18,2.18,0,0,0-1.855-.948,2.22,2.22,0,0,0-1.432.523,2.424,2.424,0,0,0-.838,1.373,2.846,2.846,0,0,0-.1.65v1.6a2.572,2.572,0,0,0,.64,1.768,2.132,2.132,0,0,0,1.67.721,2.183,2.183,0,0,0,1.875-.928A4.084,4.084,0,0,0-78.352,14.211Z" fill="#fff"/>
      <path id="Path_3482" data-name="Path 3482" d="M-63.84,15.317a3.547,3.547,0,0,1-1.182,2.764,5.239,5.239,0,0,1-3.625,1.165,6.345,6.345,0,0,1-3.449-.829l.494-1.777a5.844,5.844,0,0,0,3.082.85,2.914,2.914,0,0,0,1.877-.544,1.776,1.776,0,0,0,.67-1.454,1.854,1.854,0,0,0-.553-1.364A5.141,5.141,0,0,0-68.362,13.1q-3.5-1.3-3.494-3.816a3.377,3.377,0,0,1,1.225-2.689,4.829,4.829,0,0,1,3.258-1.048,6.459,6.459,0,0,1,3.02.632l-.533,1.738A5.24,5.24,0,0,0-67.433,7.3a2.578,2.578,0,0,0-1.756.553,1.58,1.58,0,0,0-.533,1.205,1.627,1.627,0,0,0,.611,1.3,6.906,6.906,0,0,0,1.936,1.027,6.568,6.568,0,0,1,2.527,1.618A3.38,3.38,0,0,1-63.84,15.317Z" fill="#fff"/>
      <path id="Path_3483" data-name="Path 3483" d="M-56.791,11.053h-2.35v4.659q0,1.777,1.244,1.777a3.792,3.792,0,0,0,.947-.1l.059,1.619a4.83,4.83,0,0,1-1.658.236,2.558,2.558,0,0,1-1.975-.77,3.783,3.783,0,0,1-.711-2.587V11.051h-1.4v-1.6h1.4V7.694l2.094-.632V9.451h2.35Z" fill="#fff"/>
      <path id="Path_3484" data-name="Path 3484" d="M-46.188,14.172a5.264,5.264,0,0,1-1.264,3.633,4.513,4.513,0,0,1-3.516,1.461,4.291,4.291,0,0,1-3.365-1.4,5.1,5.1,0,0,1-1.254-3.534,5.212,5.212,0,0,1,1.293-3.652A4.475,4.475,0,0,1-50.81,9.257a4.382,4.382,0,0,1,3.4,1.4A5.044,5.044,0,0,1-46.188,14.172Zm-2.212.069a4.316,4.316,0,0,0-.572-2.277,2.106,2.106,0,0,0-1.914-1.148,2.138,2.138,0,0,0-1.955,1.148,4.4,4.4,0,0,0-.572,2.317,4.31,4.31,0,0,0,.572,2.276A2.15,2.15,0,0,0-50.9,17.7a2.133,2.133,0,0,0,1.914-1.168A4.332,4.332,0,0,0-48.4,14.241Z" fill="#fff"/>
      <path id="Path_3485" data-name="Path 3485" d="M-39.258,11.328a3.7,3.7,0,0,0-.672-.059,2.014,2.014,0,0,0-1.738.85,3.2,3.2,0,0,0-.533,1.895v5.035h-2.131l.02-6.574q0-1.659-.08-3.021h1.857l.078,1.836h.059a3.282,3.282,0,0,1,1.066-1.52,2.578,2.578,0,0,1,1.541-.514,3.423,3.423,0,0,1,.533.039Z" fill="#fff"/>
      <path id="Path_3486" data-name="Path 3486" d="M-29.723,13.8a5,5,0,0,1-.078.967h-6.4a2.784,2.784,0,0,0,.928,2.173,3.168,3.168,0,0,0,2.092.671,7.074,7.074,0,0,0,2.588-.454l.334,1.48a8,8,0,0,1-3.217.593,4.66,4.66,0,0,1-3.506-1.313,4.849,4.849,0,0,1-1.273-3.524,5.5,5.5,0,0,1,1.186-3.613A4.086,4.086,0,0,1-33.71,9.238a3.576,3.576,0,0,1,3.141,1.539A5.19,5.19,0,0,1-29.723,13.8Zm-2.033-.553A2.9,2.9,0,0,0-32.17,11.6a1.862,1.862,0,0,0-1.7-.889,2.023,2.023,0,0,0-1.7.869,3.182,3.182,0,0,0-.631,1.658h4.441Z" fill="#fff"/>
    </g>
    <g id="Group_1113" data-name="Group 1113">
      <g id="Group_1112" data-name="Group 1112">
        <path id="Path_3487" data-name="Path 3487" d="M-102.829-2.446A3.283,3.283,0,0,1-103.887.212a4.208,4.208,0,0,1-2.783.824A12.9,12.9,0,0,1-108.2.958V-5.473a11.313,11.313,0,0,1,1.805-.136,3.891,3.891,0,0,1,2.59.747A3.019,3.019,0,0,1-102.829-2.446Zm-1.1.029a2.39,2.39,0,0,0-.606-1.756,2.389,2.389,0,0,0-1.771-.611,4.435,4.435,0,0,0-.844.068V.173a5.533,5.533,0,0,0,.708.029,2.479,2.479,0,0,0,1.857-.669A2.679,2.679,0,0,0-103.934-2.417Z" fill="#fff"/>
        <path id="Path_3488" data-name="Path 3488" d="M-96.97-1.418A2.586,2.586,0,0,1-97.591.367a2.216,2.216,0,0,1-1.727.718A2.107,2.107,0,0,1-100.972.4a2.509,2.509,0,0,1-.615-1.736,2.561,2.561,0,0,1,.635-1.794,2.2,2.2,0,0,1,1.712-.7,2.156,2.156,0,0,1,1.669.688A2.489,2.489,0,0,1-96.97-1.418Zm-1.087.034A2.132,2.132,0,0,0-98.338-2.5a1.035,1.035,0,0,0-.94-.564,1.051,1.051,0,0,0-.961.564,2.161,2.161,0,0,0-.281,1.138,2.132,2.132,0,0,0,.281,1.119,1.058,1.058,0,0,0,.951.564,1.046,1.046,0,0,0,.94-.574A2.119,2.119,0,0,0-98.057-1.384Z" fill="#fff"/>
        <path id="Path_3489" data-name="Path 3489" d="M-89.114-3.736-90.589.978h-.96l-.611-2.047a15.321,15.321,0,0,1-.379-1.523h-.019a11.151,11.151,0,0,1-.379,1.523L-93.586.978h-.971l-1.387-4.714h1.077l.533,2.241q.193.8.32,1.513H-94q.117-.591.389-1.5l.669-2.25h.854l.641,2.2q.232.806.378,1.552h.029a14.829,14.829,0,0,1,.32-1.552l.572-2.2h1.029Z" fill="#fff"/>
        <path id="Path_3490" data-name="Path 3490" d="M-83.681.978h-1.048v-2.7q0-1.248-.95-1.248a.946.946,0,0,0-.757.343,1.217,1.217,0,0,0-.291.808v2.8h-1.048V-2.389q0-.621-.038-1.349h.921l.049.737h.029a1.514,1.514,0,0,1,.543-.569,1.771,1.771,0,0,1,.95-.265,1.5,1.5,0,0,1,1.1.427,2.075,2.075,0,0,1,.543,1.562Z" fill="#fff"/>
        <path id="Path_3491" data-name="Path 3491" d="M-80.791.978h-1.047V-5.9h1.047Z" fill="#fff"/>
        <path id="Path_3492" data-name="Path 3492" d="M-74.621-1.418A2.586,2.586,0,0,1-75.242.367a2.218,2.218,0,0,1-1.727.718A2.1,2.1,0,0,1-78.623.4a2.509,2.509,0,0,1-.615-1.736A2.561,2.561,0,0,1-78.6-3.134a2.2,2.2,0,0,1,1.711-.7,2.158,2.158,0,0,1,1.67.688A2.489,2.489,0,0,1-74.621-1.418Zm-1.088.034A2.132,2.132,0,0,0-75.99-2.5a1.033,1.033,0,0,0-.939-.564,1.049,1.049,0,0,0-.961.564,2.161,2.161,0,0,0-.281,1.138A2.132,2.132,0,0,0-77.89-.246a1.058,1.058,0,0,0,.951.564A1.044,1.044,0,0,0-76-.256,2.11,2.11,0,0,0-75.709-1.384Z" fill="#fff"/>
        <path id="Path_3493" data-name="Path 3493" d="M-69.549.978h-.941l-.078-.543H-70.6a1.614,1.614,0,0,1-1.377.65A1.421,1.421,0,0,1-73.05.658a1.339,1.339,0,0,1-.369-.96A1.465,1.465,0,0,1-72.7-1.621a3.752,3.752,0,0,1,2.033-.446v-.088q0-.932-.979-.931a2.193,2.193,0,0,0-1.229.349l-.213-.688a3.023,3.023,0,0,1,1.617-.407q1.848,0,1.85,1.95V-.146A7.363,7.363,0,0,0-69.549.978Zm-1.088-1.62v-.727q-1.734-.03-1.734.95a.71.71,0,0,0,.2.553.733.733,0,0,0,.512.184A1.058,1.058,0,0,0-71.017.1a.893.893,0,0,0,.363-.558A.887.887,0,0,0-70.637-.642Z" fill="#fff"/>
        <path id="Path_3494" data-name="Path 3494" d="M-63.594.978h-.93l-.049-.757H-64.6a1.567,1.567,0,0,1-1.514.864A1.774,1.774,0,0,1-67.532.416a2.606,2.606,0,0,1-.562-1.736,2.733,2.733,0,0,1,.611-1.853,1.879,1.879,0,0,1,1.455-.66,1.413,1.413,0,0,1,1.328.64h.02V-5.9h1.049V-.292Q-63.631.4-63.594.978ZM-64.68-1.01V-1.8a1.543,1.543,0,0,0-.029-.33,1.194,1.194,0,0,0-.379-.635,1.03,1.03,0,0,0-.7-.257,1.075,1.075,0,0,0-.922.466,2,2,0,0,0-.336,1.193,1.862,1.862,0,0,0,.322,1.135,1.079,1.079,0,0,0,.916.465,1.01,1.01,0,0,0,.828-.388A1.292,1.292,0,0,0-64.68-1.01Z" fill="#fff"/>
        <path id="Path_3495" data-name="Path 3495" d="M-54.631-1.418A2.586,2.586,0,0,1-55.252.367a2.215,2.215,0,0,1-1.727.718A2.11,2.11,0,0,1-58.633.4a2.509,2.509,0,0,1-.615-1.736,2.561,2.561,0,0,1,.635-1.794,2.2,2.2,0,0,1,1.713-.7,2.154,2.154,0,0,1,1.668.688A2.489,2.489,0,0,1-54.631-1.418Zm-1.086.034A2.132,2.132,0,0,0-56-2.5a1.036,1.036,0,0,0-.941-.564A1.053,1.053,0,0,0-57.9-2.5a2.161,2.161,0,0,0-.281,1.138A2.132,2.132,0,0,0-57.9-.246a1.058,1.058,0,0,0,.951.564,1.047,1.047,0,0,0,.941-.574A2.128,2.128,0,0,0-55.717-1.384Z" fill="#fff"/>
        <path id="Path_3496" data-name="Path 3496" d="M-49,.978h-1.047v-2.7q0-1.248-.951-1.248a.942.942,0,0,0-.756.343,1.212,1.212,0,0,0-.291.808v2.8H-53.09V-2.389q0-.621-.037-1.349h.92l.049.737h.029a1.53,1.53,0,0,1,.543-.569,1.775,1.775,0,0,1,.951-.265,1.5,1.5,0,0,1,1.1.427A2.071,2.071,0,0,1-49-1.846Z" fill="#fff"/>
        <path id="Path_3497" data-name="Path 3497" d="M-41.943-2.951H-43.1v2.29c0,.582.205.873.611.873a1.846,1.846,0,0,0,.467-.049l.027.8a2.355,2.355,0,0,1-.814.117A1.253,1.253,0,0,1-43.775.7a1.849,1.849,0,0,1-.35-1.271V-2.951h-.689v-.785h.689V-4.6l1.027-.31v1.173h1.154v.786Z" fill="#fff"/>
        <path id="Path_3498" data-name="Path 3498" d="M-36.4.978h-1.049V-1.7q0-1.267-.949-1.268a1,1,0,0,0-1,.735,1.317,1.317,0,0,0-.049.377V.977h-1.047V-5.9h1.047v2.841h.02a1.584,1.584,0,0,1,1.416-.775,1.46,1.46,0,0,1,1.078.427A2.147,2.147,0,0,1-36.4-1.825Z" fill="#fff"/>
        <path id="Path_3499" data-name="Path 3499" d="M-30.672-1.6a2.531,2.531,0,0,1-.039.475h-3.143A1.374,1.374,0,0,0-33.4-.06,1.561,1.561,0,0,0-32.37.27,3.472,3.472,0,0,0-31.1.047l.164.728a3.947,3.947,0,0,1-1.582.291A2.285,2.285,0,0,1-34.238.421a2.376,2.376,0,0,1-.625-1.731,2.7,2.7,0,0,1,.582-1.775,2,2,0,0,1,1.648-.756,1.753,1.753,0,0,1,1.541.756A2.517,2.517,0,0,1-30.672-1.6Zm-1-.271a1.411,1.411,0,0,0-.2-.8.915.915,0,0,0-.834-.437,1,1,0,0,0-.834.427,1.586,1.586,0,0,0-.311.815Z" fill="#fff"/>
      </g>
    </g>
  </g>
</svg>
